<svg width="12" height="12" viewBox="0 0 12 12" fill="none" xmlns="http://www.w3.org/2000/svg">
<path fill-rule="evenodd" clip-rule="evenodd" d="M4.77736 8.99133L3.04611 9.94248C2.81226 10.071 2.52302 9.977 2.40008 9.73262C2.35112 9.63531 2.33423 9.52385 2.35201 9.41549L2.68265 7.40094C2.70927 7.23877 2.65782 7.0733 2.54508 6.95846L1.14446 5.53175C0.955275 5.33903 0.951403 5.02253 1.13582 4.82483C1.20925 4.7461 1.30547 4.69487 1.40958 4.67906L3.34518 4.38514C3.50099 4.36148 3.63569 4.25922 3.70537 4.11167L4.57099 2.27878C4.68792 2.0312 4.97476 1.92955 5.21168 2.05173C5.30602 2.10039 5.38238 2.18019 5.42894 2.27878L6.29457 4.11167C6.36425 4.25922 6.49894 4.36148 6.65476 4.38514L8.59035 4.67906C8.85181 4.71876 9.03296 4.97243 8.99497 5.24566C8.97984 5.35445 8.93081 5.45501 8.85547 5.53175L7.45486 6.95846C7.34212 7.0733 7.29067 7.23877 7.31728 7.40094L7.64792 9.41549C7.69258 9.6876 7.5177 9.94603 7.2573 9.9927C7.15361 10.0113 7.04695 9.99364 6.95383 9.94248L5.22258 8.99133C5.08321 8.91477 4.91672 8.91477 4.77736 8.99133Z" fill="black"/>
</svg>
